<?xml version="1.0" encoding="UTF-8"?>
<svg id="Capa_2" data-name="Capa 2" xmlns="http://www.w3.org/2000/svg" viewBox="0 0 299.79 107.91">
  <defs>
    <style>
      .cls-1 {
        fill: #bde62a;
      }
    </style>
  </defs>
  <g id="Presentación_logo" data-name="Presentación logo">
    <g>
      <g>
        <path class="cls-1" d="M201.58,102.48l6.05-16.28h2.88l6.03,16.28h-2.16l-1.29-3.5h-8.06l-1.29,3.5h-2.16ZM205.7,97.16h6.72l-3.36-9.21-3.36,9.21Z"/>
        <path class="cls-1" d="M218.25,102.48v-12.13h1.89l.09,1.84c.28-.45.63-.81,1.06-1.11.43-.29.9-.51,1.42-.66.51-.15,1.02-.22,1.51-.22,1.18,0,2.11.25,2.77.74.67.49,1.14,1.16,1.43,1.99.28.84.43,1.78.43,2.84v6.7h-1.96v-6.17c0-.57-.03-1.11-.1-1.63s-.21-.99-.41-1.4-.5-.74-.89-.98c-.38-.24-.9-.36-1.54-.36-.8,0-1.48.22-2.04.67-.56.45-.98,1.04-1.27,1.8s-.43,1.6-.43,2.53v5.55h-1.96Z"/>
        <path class="cls-1" d="M235.74,102.61c-.55,0-1.09-.07-1.6-.22-.51-.15-.97-.37-1.38-.67-.41-.3-.73-.67-.97-1.13-.24-.45-.36-.98-.36-1.58,0-.69.13-1.27.38-1.75s.59-.85,1.02-1.13c.43-.28.93-.47,1.5-.6s1.16-.18,1.77-.18h3.57c0-.69-.1-1.29-.29-1.8-.19-.51-.5-.9-.93-1.19-.43-.28-1-.43-1.7-.43-.43,0-.83.05-1.2.14-.37.09-.68.24-.94.44-.26.2-.45.47-.58.81h-2.09c.11-.55.32-1.02.63-1.42s.7-.71,1.15-.97c.45-.25.94-.44,1.46-.56.52-.12,1.04-.18,1.57-.18,1.75,0,2.99.51,3.73,1.54.74,1.03,1.11,2.42,1.11,4.17v6.56h-1.63l-.12-1.54c-.34.46-.74.81-1.22,1.06-.48.25-.96.41-1.46.5-.5.08-.97.13-1.42.13ZM235.93,100.89c.77,0,1.43-.13,1.99-.38.56-.25.99-.63,1.3-1.12.31-.49.46-1.09.46-1.79v-.6h-2.14c-.51,0-1.01,0-1.5.02-.49.02-.94.08-1.34.18-.4.11-.72.29-.96.55s-.36.64-.36,1.13c0,.46.12.84.36,1.13.24.29.55.51.94.66.39.15.8.22,1.23.22Z"/>
        <path class="cls-1" d="M244.17,102.48v-16.28h1.96v16.28h-1.96Z"/>
        <path class="cls-1" d="M254.55,107.91c-.94,0-1.84-.13-2.71-.39s-1.65-.71-2.34-1.36l.85-1.54c.6.48,1.24.85,1.92,1.13s1.4.42,2.15.42c1.26,0,2.16-.37,2.71-1.09.54-.73.82-1.65.82-2.77v-1.45c-.28.42-.62.76-1.05,1.02-.42.27-.89.47-1.39.6-.51.13-1.03.2-1.57.2-1.2,0-2.14-.24-2.83-.71s-1.18-1.14-1.47-1.98c-.29-.84-.44-1.82-.44-2.92v-6.7h1.96v6.15c0,.55.03,1.09.1,1.62s.21,1,.43,1.43c.21.42.53.76.94,1.01.41.25.97.38,1.66.38.88,0,1.58-.21,2.11-.64s.91-1.01,1.15-1.73c.24-.72.36-1.52.36-2.39v-5.82h1.96v12.13c0,.88-.12,1.65-.35,2.33-.23.67-.58,1.24-1.04,1.7-.46.46-1.02.81-1.67,1.05-.65.24-1.41.36-2.27.36Z"/>
        <path class="cls-1" d="M268.8,102.48c-.92,0-1.66-.14-2.22-.41s-.97-.71-1.22-1.29-.38-1.32-.38-2.21v-6.49h-1.98v-1.73h1.98v-3.61h1.96v3.61h3.25v1.73h-3.25v6.28c0,.83.15,1.44.45,1.83.3.39.91.59,1.83.59h.9v1.7h-1.31Z"/>
        <path class="cls-1" d="M273.82,88.55c-.4,0-.72-.12-.96-.37-.24-.25-.36-.56-.36-.94s.12-.69.37-.93c.25-.24.56-.36.94-.36.35,0,.66.12.93.37s.4.55.4.92-.13.7-.39.94c-.26.25-.58.37-.94.37ZM272.85,102.48v-12.13h1.96v12.13h-1.96Z"/>
        <path class="cls-1" d="M282.15,102.61c-1.27,0-2.33-.26-3.17-.79-.84-.53-1.46-1.26-1.86-2.2-.41-.94-.61-2-.61-3.18s.21-2.2.63-3.14c.42-.94,1.07-1.7,1.93-2.26.87-.56,1.97-.84,3.3-.84.83,0,1.57.14,2.22.41s1.19.68,1.62,1.21c.43.53.73,1.19.9,1.99h-2c-.23-.68-.59-1.16-1.09-1.44-.5-.28-1.09-.43-1.76-.43-.92,0-1.66.21-2.21.64s-.96.99-1.21,1.67c-.25.68-.38,1.41-.38,2.18s.13,1.54.39,2.21c.26.68.67,1.22,1.22,1.62.55.41,1.27.61,2.14.61.64,0,1.25-.14,1.83-.41s.96-.77,1.14-1.47h2.03c-.15.83-.48,1.51-.98,2.05-.5.54-1.1.93-1.82,1.19-.71.25-1.47.38-2.27.38Z"/>
        <path class="cls-1" d="M294.58,102.61c-.55,0-1.11-.05-1.67-.16-.56-.11-1.08-.29-1.57-.55s-.89-.61-1.21-1.06c-.32-.44-.53-1-.62-1.66h1.98c.15.41.4.75.75,1,.34.25.74.43,1.17.54.44.11.86.16,1.25.16.25,0,.53-.01.85-.05.32-.03.63-.1.93-.22.3-.11.54-.29.74-.52.19-.23.29-.55.29-.97,0-.31-.07-.56-.21-.76-.14-.2-.33-.36-.58-.5-.25-.13-.54-.23-.9-.29-.72-.15-1.49-.3-2.31-.44-.82-.14-1.55-.4-2.18-.78-.21-.14-.41-.29-.59-.47-.18-.18-.33-.38-.45-.6s-.22-.47-.29-.74c-.07-.27-.1-.56-.1-.89,0-.6.12-1.12.36-1.55.24-.44.57-.8,1-1.08s.92-.5,1.49-.63c.56-.14,1.16-.21,1.81-.21.8,0,1.52.13,2.15.38.64.25,1.16.62,1.58,1.1s.66,1.08.74,1.78h-1.82c-.11-.45-.4-.81-.88-1.09-.48-.28-1.08-.43-1.82-.43-.25,0-.52.02-.83.06-.31.04-.6.12-.87.23s-.51.28-.69.51c-.18.22-.28.52-.28.89,0,.34.09.62.26.85.18.23.43.42.75.55s.69.25,1.1.35c.54.11,1.13.22,1.77.33.64.12,1.15.23,1.52.36.49.15.9.37,1.23.64s.58.61.74.99c.16.38.24.83.24,1.34,0,.72-.14,1.31-.43,1.77-.28.46-.66.82-1.14,1.08s-1,.45-1.58.55c-.58.11-1.15.16-1.72.16Z"/>
      </g>
      <g>
        <path class="cls-1" d="M258.26,16.63c-2.67-1.37-4.85-3.54-6.22-6.22h0c-.47-.93-1.8-.93-2.28,0h0c-1.37,2.67-3.54,4.85-6.22,6.22-.93.47-.93,1.8,0,2.28,2.67,1.37,4.85,3.54,6.22,6.22h0c.47.93,1.8.93,2.28,0h0c1.37-2.67,3.54-4.85,6.22-6.22.93-.47.93-1.8,0-2.28Z"/>
        <path class="cls-1" d="M117.17,28.8c-11.89,0-20.06,8.93-20.06,20.52s8.25,20.84,21.19,20.84c5.58,0,10.68-1.69,14.16-5.07.65-.56.89-1.05.32-1.69l-1.78-2.49c-.32-.4-.81-.4-1.29-.08-3.07,2.17-6.39,3.38-10.76,3.38-8.74,0-13.83-4.99-14.72-12.07h28.31c2.67,0,3.32-1.45,3.32-4.67,0-9.73-6.88-18.67-18.69-18.67ZM104.23,46.74c.81-7.32,5.82-11.75,12.94-11.75s11.81,4.67,12.21,11.75h-25.16Z"/>
        <path class="cls-1" d="M148.62,7.8h-5.2c-.74,0-1.16.44-1.16,1.22v59.94c0,.79.41,1.22,1.16,1.22h5.2c.74,0,1.16-.44,1.16-1.22V9.02c0-.79-.41-1.22-1.16-1.22Z"/>
        <path class="cls-1" d="M176.71,28.66c-11.78,0-19.88,8.96-19.88,20.58s8.18,20.9,21,20.9c5.53,0,10.58-1.69,14.03-5.08.64-.56.88-1.05.32-1.69l-1.76-2.5c-.32-.4-.8-.4-1.28-.08-3.05,2.18-6.33,3.39-10.66,3.39-8.66,0-13.71-5-14.59-12.1h28.05c2.65,0,3.29-1.45,3.29-4.68,0-9.76-6.81-18.72-18.52-18.72ZM163.88,46.65c.8-7.34,5.77-11.78,12.82-11.78s11.7,4.68,12.1,11.78h-24.93Z"/>
        <path class="cls-1" d="M222.69,28.66c-6.84,0-11.34,3.22-13.76,7.35l-.26-5.12c0-.91-.29-2.49-1.15-2.49h-5.11c-.78,0-1.27,1.66-1.27,2.41v38.17c0,.74.43,1.16,1.21,1.16h5.45c.78,0,1.13-.41,1.13-1.16v-22.64c0-6.77,4.76-10.82,11.25-10.82s10.13,4.05,10.13,10.82v22.64c0,.74.35,1.16,1.12,1.16h5.45c.78,0,1.21-.41,1.21-1.16v-23.79c0-10.66-6.32-16.52-15.4-16.52Z"/>
        <path class="cls-1" d="M253.46,29.7h-5.2c-.74,0-1.07.41-1.07,1.15v38.12c0,.74.33,1.16,1.07,1.16h5.2c.74,0,1.16-.41,1.16-1.16V30.85c0-.74-.41-1.15-1.16-1.15Z"/>
        <path class="cls-1" d="M299.51,68.69l-12.54-19.7,11.96-18.85c.49-.85.25-1.44-.66-1.44h-5.78c-.66,0-1.07.25-1.4.85l-8.58,14.03-8.58-14.03c-.33-.59-.74-.85-1.4-.85h-5.69c-.99,0-1.24.59-.74,1.44l11.96,18.85-12.54,19.7c-.5.85-.16,1.44.74,1.44h5.69c.66,0,1.07-.25,1.4-.85l9.16-14.96,9.16,14.96c.33.59.74.85,1.4.85h5.69c.99,0,1.32-.59.74-1.44Z"/>
      </g>
      <g>
        <path class="cls-1" d="M80.42,31.61l-11.03,7.72c-.55,14.24-12.3,25.65-26.67,25.65-6.93,0-13.26-2.66-18.01-7.01l36.9-25.84.03-.32.04-.35,1.98-18.49.46-4.31.21-1.96C58.18,2.48,50.73,0,42.72,0,21.61,0,4.43,17.18,4.43,38.29c0,6.09,1.43,11.84,3.97,16.96l9.65-6.76c-1.3-3.14-2.03-6.59-2.03-10.2,0-14.72,11.98-26.7,26.7-26.7,6.93,0,13.26,2.66,18.01,7.01h0s-42.68,29.88-42.68,29.88l6.65,9.5-9.64,6.75c6.98,7.29,16.8,11.84,27.66,11.84,21.11,0,38.29-17.18,38.29-38.29,0-2.28-.2-4.51-.58-6.67Z"/>
        <path class="cls-1" d="M67.39,28.09s0,0,0,.01l9.65-6.76s0,0,0-.01c0,0,0,0,0,0-.51-1.03-1.07-2.04-1.67-3.02l-9.52,6.66c.58,1,1.09,2.04,1.54,3.12,0,0,0,0,0,0Z"/>
        <path class="cls-1" d="M68.54,31.52h0c.32,1.21.55,2.44.69,3.71,0,0,0,.01,0,.02l10.36-7.25s0-.01,0-.02c-.32-1.16-.7-2.29-1.13-3.4,0,0,0-.02,0-.03l-9.92,6.94s0,.02,0,.03Z"/>
        <circle class="cls-1" cx="5.79" cy="64.41" r="5.79" transform="translate(-43.85 22.96) rotate(-45)"/>
        <rect class="cls-1" x="57.85" y="34.76" width=".03" height=".01" transform="translate(-9.48 39.44) rotate(-34.97)"/>
      </g>
    </g>
  </g>
</svg>