<?xml version="1.0" encoding="UTF-8"?>
<svg id="Capa_2" data-name="Capa 2" xmlns="http://www.w3.org/2000/svg" viewBox="0 0 126.42 119.5">
  <defs>
    <style>
      .cls-1 {
        fill: #121260;
      }
    </style>
  </defs>
  <g id="Presentación_logo" data-name="Presentación logo">
    <g>
      <path class="cls-1" d="M125.51,49.34l-17.21,12.05c-.86,22.22-19.2,40.02-41.63,40.02-10.82,0-20.69-4.15-28.11-10.94l57.59-40.33.05-.5.06-.55,3.09-28.86.72-6.72.33-3.06C90.79,3.86,79.18,0,66.67,0,33.72,0,6.92,26.8,6.92,59.75c0,9.5,2.23,18.48,6.19,26.46l15.06-10.55c-2.04-4.91-3.16-10.28-3.16-15.92,0-22.97,18.69-41.66,41.66-41.66,10.82,0,20.69,4.15,28.11,10.94h0S28.17,75.67,28.17,75.67l10.38,14.82-15.05,10.54c10.89,11.38,26.21,18.48,43.17,18.48,32.95,0,59.75-26.8,59.75-59.75,0-3.55-.31-7.03-.91-10.42Z"/>
      <path class="cls-1" d="M105.17,43.84s0,.01,0,.02l15.06-10.55s0-.01,0-.02c0,0,0,0,0,0-.8-1.62-1.67-3.19-2.61-4.72l-14.85,10.4c.9,1.56,1.7,3.19,2.4,4.86,0,0,0,0,0,0Z"/>
      <path class="cls-1" d="M106.97,49.19h0c.49,1.88.86,3.82,1.08,5.79,0,0,0,.02,0,.03l16.17-11.32s0-.02,0-.02c-.51-1.81-1.1-3.58-1.76-5.31,0-.01,0-.03-.02-.04l-15.48,10.84s0,.03.01.04Z"/>
      <circle class="cls-1" cx="9.04" cy="100.53" r="9.04" transform="translate(-68.44 35.83) rotate(-45)"/>
      <rect class="cls-1" x="90.28" y="54.25" width=".04" height=".02" transform="translate(-14.79 61.55) rotate(-34.97)"/>
    </g>
  </g>
</svg>